<svg width="320" height="110" viewBox="0 0 320 110" xmlns="http://www.w3.org/2000/svg">
  <defs>
    <linearGradient id="r" x1="0" y1="0" x2="1" y2="1">
      <stop offset="0" stop-color="#ff1d25"/>
      <stop offset="1" stop-color="#d60000"/>
    </linearGradient>
    <filter id="s" x="-20%" y="-20%" width="140%" height="140%">
      <feDropShadow dx="0" dy="4" stdDeviation="5" flood-color="#001a5b" flood-opacity="0.22"/>
    </filter>
  </defs>
  <rect width="320" height="110" fill="none"/>
  <g transform="translate(18,10)" filter="url(#s)">
    <circle cx="45" cy="45" r="40" fill="url(#r)"/>
    <path d="M18 45h54M45 13c-10 14-10 50 0 64M45 13c18 15 24 42 10 64M16 29c17 10 38 12 58 3M18 61c18-5 38-1 55 9"
          fill="none" stroke="#fff" stroke-width="6" stroke-linecap="round"/>
    <g transform="translate(26,54) rotate(-35)">
      <rect x="0" y="0" width="112" height="30" rx="7" fill="#fff" stroke="#001a82" stroke-width="5"/>
      <text x="56" y="22" text-anchor="middle" font-family="Arial, Helvetica, sans-serif" font-size="19" font-weight="900" fill="#001a82">СОЛНЦАНЕТ</text>
    </g>
  </g>
  <text x="112" y="48" font-family="Arial, Helvetica, sans-serif" font-size="29" font-weight="900" fill="#0b2a66">СОЛНЦАНЕТ</text>
  <text x="114" y="72" font-family="Arial, Helvetica, sans-serif" font-size="13" font-weight="700" fill="#4b5c78">Плёнки. Качество. Надёжность.</text>
</svg>